<svg width="6" height="7" viewBox="0 0 6 7" fill="none" xmlns="http://www.w3.org/2000/svg">
<path d="M5.17827 3.65362C5.17827 4.5767 6.00005 4.88439 6.00005 4.88439C6.00005 4.90637 5.86678 5.32395 5.57805 5.74153C5.31153 6.11516 5.04501 6.48879 4.62301 6.48879C4.20102 6.48879 4.06776 6.24703 3.60134 6.24703C3.13493 6.24703 2.97946 6.48879 2.60189 6.48879C2.2021 6.51076 1.89116 6.09318 1.62464 5.71956C1.0916 4.9723 0.691816 3.58769 1.22486 2.64263C1.49138 2.18109 1.98 1.89538 2.49084 1.8734C2.89062 1.8734 3.26819 2.13714 3.5125 2.13714C3.75682 2.13714 4.22323 1.80747 4.68964 1.85142C4.88953 1.85142 5.44479 1.93934 5.82236 2.46681C5.82236 2.51076 5.17827 2.88439 5.17827 3.65362ZM4.40091 1.38989C4.62301 1.12615 4.75627 0.7745 4.71185 0.422852C4.40091 0.44483 4.02334 0.620653 3.80123 0.88439C3.60134 1.10417 3.42366 1.4778 3.46808 1.82945C3.82344 1.85142 4.17881 1.65362 4.40091 1.38989Z" fill="#B9B9BB"/>
</svg>
