<svg width="18" height="19" viewBox="0 0 18 19" fill="none" xmlns="http://www.w3.org/2000/svg">
<path fill-rule="evenodd" clip-rule="evenodd" d="M0.849806 1.34971C1.42502 0.774498 2.23707 0.541656 3.16675 0.541656H4.83341C5.76309 0.541656 6.57514 0.774498 7.15036 1.34971C7.72557 1.92493 7.95841 2.73698 7.95841 3.66666V5.33332C7.95841 6.263 7.72557 7.07505 7.15036 7.65027C6.57514 8.22548 5.76309 8.45832 4.83341 8.45832H3.16675C2.23707 8.45832 1.42502 8.22548 0.849806 7.65027C0.27459 7.07505 0.041748 6.263 0.041748 5.33332V3.66666C0.041748 2.73698 0.27459 1.92493 0.849806 1.34971ZM1.73369 2.2336C1.47557 2.49172 1.29175 2.92966 1.29175 3.66666V5.33332C1.29175 6.07032 1.47557 6.50826 1.73369 6.76638C1.99181 7.0245 2.42975 7.20832 3.16675 7.20832H4.83341C5.57041 7.20832 6.00836 7.0245 6.26647 6.76638C6.52459 6.50826 6.70841 6.07032 6.70841 5.33332V3.66666C6.70841 2.92966 6.52459 2.49172 6.26647 2.2336C6.00836 1.97548 5.57041 1.79166 4.83341 1.79166H3.16675C2.42975 1.79166 1.99181 1.97548 1.73369 2.2336Z" fill="#4F4F4F"/>
<path fill-rule="evenodd" clip-rule="evenodd" d="M10.8498 1.34971C11.425 0.774498 12.2371 0.541656 13.1667 0.541656H14.8334C15.7631 0.541656 16.5751 0.774498 17.1504 1.34971C17.7256 1.92493 17.9584 2.73698 17.9584 3.66666V5.33332C17.9584 6.263 17.7256 7.07505 17.1504 7.65027C16.5751 8.22548 15.7631 8.45832 14.8334 8.45832H13.1667C12.2371 8.45832 11.425 8.22548 10.8498 7.65027C10.2746 7.07505 10.0417 6.263 10.0417 5.33332V3.66666C10.0417 2.73698 10.2746 1.92493 10.8498 1.34971ZM11.7337 2.2336C11.4756 2.49172 11.2917 2.92966 11.2917 3.66666V5.33332C11.2917 6.07032 11.4756 6.50826 11.7337 6.76638C11.9918 7.0245 12.4298 7.20832 13.1667 7.20832H14.8334C15.5704 7.20832 16.0084 7.0245 16.2665 6.76638C16.5246 6.50826 16.7084 6.07032 16.7084 5.33332V3.66666C16.7084 2.92966 16.5246 2.49172 16.2665 2.2336C16.0084 1.97548 15.5704 1.79166 14.8334 1.79166H13.1667C12.4298 1.79166 11.9918 1.97548 11.7337 2.2336Z" fill="#4F4F4F"/>
<path fill-rule="evenodd" clip-rule="evenodd" d="M10.8498 11.3497C11.425 10.7745 12.2371 10.5417 13.1667 10.5417H14.8334C15.7631 10.5417 16.5751 10.7745 17.1504 11.3497C17.7256 11.9249 17.9584 12.737 17.9584 13.6667V15.3333C17.9584 16.263 17.7256 17.075 17.1504 17.6503C16.5751 18.2255 15.7631 18.4583 14.8334 18.4583H13.1667C12.2371 18.4583 11.425 18.2255 10.8498 17.6503C10.2746 17.075 10.0417 16.263 10.0417 15.3333V13.6667C10.0417 12.737 10.2746 11.9249 10.8498 11.3497ZM11.7337 12.2336C11.4756 12.4917 11.2917 12.9297 11.2917 13.6667V15.3333C11.2917 16.0703 11.4756 16.5083 11.7337 16.7664C11.9918 17.0245 12.4298 17.2083 13.1667 17.2083H14.8334C15.5704 17.2083 16.0084 17.0245 16.2665 16.7664C16.5246 16.5083 16.7084 16.0703 16.7084 15.3333V13.6667C16.7084 12.9297 16.5246 12.4917 16.2665 12.2336C16.0084 11.9755 15.5704 11.7917 14.8334 11.7917H13.1667C12.4298 11.7917 11.9918 11.9755 11.7337 12.2336Z" fill="#4F4F4F"/>
<path fill-rule="evenodd" clip-rule="evenodd" d="M0.849806 11.3497C1.42502 10.7745 2.23707 10.5417 3.16675 10.5417H4.83341C5.76309 10.5417 6.57514 10.7745 7.15036 11.3497C7.72557 11.9249 7.95841 12.737 7.95841 13.6667V15.3333C7.95841 16.263 7.72557 17.075 7.15036 17.6503C6.57514 18.2255 5.76309 18.4583 4.83341 18.4583H3.16675C2.23707 18.4583 1.42502 18.2255 0.849806 17.6503C0.27459 17.075 0.041748 16.263 0.041748 15.3333V13.6667C0.041748 12.737 0.27459 11.9249 0.849806 11.3497ZM1.73369 12.2336C1.47557 12.4917 1.29175 12.9297 1.29175 13.6667V15.3333C1.29175 16.0703 1.47557 16.5083 1.73369 16.7664C1.99181 17.0245 2.42975 17.2083 3.16675 17.2083H4.83341C5.57041 17.2083 6.00836 17.0245 6.26647 16.7664C6.52459 16.5083 6.70841 16.0703 6.70841 15.3333V13.6667C6.70841 12.9297 6.52459 12.4917 6.26647 12.2336C6.00836 11.9755 5.57041 11.7917 4.83341 11.7917H3.16675C2.42975 11.7917 1.99181 11.9755 1.73369 12.2336Z" fill="#4F4F4F"/>
</svg>
