<svg width="18" height="15" viewBox="0 0 18 15" fill="none" xmlns="http://www.w3.org/2000/svg">
<path fill-rule="evenodd" clip-rule="evenodd" d="M1.05802 1.22474C1.88177 0.40098 3.17109 0.208344 4.83329 0.208344H13.1666C14.8288 0.208344 16.1181 0.40098 16.9419 1.22474C17.7657 2.04849 17.9583 3.33781 17.9583 5.00001V5.83334C17.9583 6.17852 17.6785 6.45834 17.3333 6.45834C16.5285 6.45834 15.875 7.11185 15.875 7.91668C15.875 8.7215 16.5285 9.37501 17.3333 9.37501C17.6785 9.37501 17.9583 9.65483 17.9583 10C17.9583 11.6622 17.7657 12.9515 16.9419 13.7753C16.1181 14.599 14.8288 14.7917 13.1666 14.7917H4.83329C3.17109 14.7917 1.88177 14.599 1.05802 13.7753C0.234263 12.9515 0.041626 11.6622 0.041626 10V9.58334C0.041626 9.23817 0.321448 8.95834 0.666626 8.95834C1.47145 8.95834 2.12496 8.30483 2.12496 7.50001C2.12496 6.69519 1.47145 6.04168 0.666626 6.04168C0.321448 6.04168 0.041626 5.76185 0.041626 5.41668V5.00001C0.041626 3.33781 0.234263 2.04849 1.05802 1.22474ZM1.29213 4.86435C2.48599 5.14686 3.37496 6.22011 3.37496 7.50001C3.37496 8.77991 2.48599 9.85316 1.29213 10.1357C1.30408 11.7145 1.52736 12.4769 1.9419 12.8914C2.36815 13.3176 3.16216 13.5417 4.83329 13.5417H13.1666C14.8378 13.5417 15.6318 13.3176 16.058 12.8914C16.4345 12.5149 16.6532 11.8515 16.6992 10.5503C15.5096 10.2647 14.625 9.1935 14.625 7.91668C14.625 6.63659 15.5142 5.56323 16.7083 5.28089V5.00001C16.7083 3.32888 16.4843 2.53486 16.058 2.10862C15.6318 1.68237 14.8378 1.45834 13.1666 1.45834H4.83329C3.16216 1.45834 2.36815 1.68237 1.9419 2.10862C1.52736 2.52316 1.30408 3.28556 1.29213 4.86435Z" fill="#4F4F4F"/>
<path fill-rule="evenodd" clip-rule="evenodd" d="M11.9419 4.34975C12.186 4.59382 12.186 4.98955 11.9419 5.23363L6.94194 10.2336C6.69786 10.4777 6.30214 10.4777 6.05806 10.2336C5.81398 9.98955 5.81398 9.59382 6.05806 9.34975L11.0581 4.34975C11.3021 4.10567 11.6979 4.10567 11.9419 4.34975Z" fill="#4F4F4F"/>
<path fill-rule="evenodd" clip-rule="evenodd" d="M10.6621 9.79168C10.6621 9.33144 11.0352 8.95834 11.4954 8.95834H11.5029C11.9632 8.95834 12.3363 9.33144 12.3363 9.79168C12.3363 10.2519 11.9632 10.625 11.5029 10.625H11.4954C11.0352 10.625 10.6621 10.2519 10.6621 9.79168Z" fill="#4F4F4F"/>
<path fill-rule="evenodd" clip-rule="evenodd" d="M5.66211 5.20833C5.66211 4.7481 6.03521 4.375 6.49544 4.375H6.50293C6.96316 4.375 7.33626 4.7481 7.33626 5.20833C7.33626 5.66857 6.96316 6.04167 6.50293 6.04167H6.49544C6.03521 6.04167 5.66211 5.66857 5.66211 5.20833Z" fill="#4F4F4F"/>
</svg>
