<svg width="24" height="24" viewBox="0 0 24 24" fill="none" xmlns="http://www.w3.org/2000/svg">
<path d="M12.4997 22H4.07973C2.91973 22 1.96973 21.07 1.96973 19.93V5.08998C1.96973 2.46998 3.91973 1.27998 6.30973 2.44998L10.7497 4.62998C11.7097 5.09998 12.4997 6.34998 12.4997 7.40998V22Z" stroke="#4F4F4F" stroke-width="1.5" stroke-linecap="round" stroke-linejoin="round"/>
<path d="M21.97 15.0599V18.8399C21.97 20.9999 20.97 21.9999 18.81 21.9999H12.5V10.4199L12.97 10.5199L17.47 11.5299L19.5 11.9799C20.82 12.2699 21.9 12.9499 21.96 14.8699C21.97 14.9299 21.97 14.9899 21.97 15.0599Z" stroke="#4F4F4F" stroke-width="1.5" stroke-linecap="round" stroke-linejoin="round"/>
<path d="M5.5 9H8.97" stroke="#4F4F4F" stroke-width="1.5" stroke-linecap="round" stroke-linejoin="round"/>
<path d="M5.5 13H8.97" stroke="#4F4F4F" stroke-width="1.5" stroke-linecap="round" stroke-linejoin="round"/>
<path d="M17.4697 11.53V14.75C17.4697 15.99 16.4597 17 15.2197 17C13.9797 17 12.9697 15.99 12.9697 14.75V10.52L17.4697 11.53Z" stroke="#4F4F4F" stroke-width="1.5" stroke-linecap="round" stroke-linejoin="round"/>
<path d="M21.9597 14.87C21.8997 16.05 20.9197 17 19.7197 17C18.4797 17 17.4697 15.99 17.4697 14.75V11.53L19.4997 11.98C20.8197 12.27 21.8997 12.95 21.9597 14.87Z" stroke="#4F4F4F" stroke-width="1.5" stroke-linecap="round" stroke-linejoin="round"/>
</svg>
