<svg width="22" height="22" viewBox="0 0 22 22" fill="none" xmlns="http://www.w3.org/2000/svg">
<path fill-rule="evenodd" clip-rule="evenodd" d="M10.575 3.25738C9.7846 3.89874 9.29254 4.9363 9.14718 6.62434C9.11164 7.03702 8.74829 7.34276 8.3356 7.30722C7.92291 7.27169 7.61717 6.90833 7.65271 6.49564C7.81735 4.58368 8.4053 3.08624 9.62988 2.0926C10.8338 1.11574 12.5163 0.73999 14.6099 0.73999H14.7399C17.0491 0.73999 18.8609 1.19778 20.0765 2.41341C21.2922 3.62904 21.7499 5.44081 21.7499 7.74999V14.27C21.7499 16.5792 21.2922 18.3909 20.0765 19.6066C18.8609 20.8222 17.0491 21.28 14.7399 21.28H14.6099C12.5315 21.28 10.8591 20.9093 9.65768 19.9481C8.43457 18.9697 7.83885 17.4941 7.66318 15.6096C7.62474 15.1972 7.92791 14.8317 8.34033 14.7932C8.75276 14.7548 9.11826 15.058 9.15671 15.4704C9.31104 17.1259 9.80532 18.1453 10.5947 18.7768C11.4058 19.4257 12.6684 19.78 14.6099 19.78H14.7399C16.9008 19.78 18.219 19.3428 19.0159 18.5459C19.8127 17.749 20.2499 16.4308 20.2499 14.27V7.74999C20.2499 5.58917 19.8127 4.27094 19.0159 3.47407C18.219 2.6772 16.9008 2.23999 14.7399 2.23999H14.6099C12.6536 2.23999 11.3861 2.59924 10.575 3.25738Z" fill="#7D7D7D"/>
<path fill-rule="evenodd" clip-rule="evenodd" d="M0.75 11C0.75 10.5858 1.08579 10.25 1.5 10.25H14.38C14.7942 10.25 15.13 10.5858 15.13 11C15.13 11.4142 14.7942 11.75 14.38 11.75H1.5C1.08579 11.75 0.75 11.4142 0.75 11Z" fill="#7D7D7D"/>
<path fill-rule="evenodd" clip-rule="evenodd" d="M11.6196 7.11966C11.9125 6.82677 12.3873 6.82677 12.6802 7.11966L16.0302 10.4697C16.3231 10.7626 16.3231 11.2374 16.0302 11.5303L12.6802 14.8803C12.3873 15.1732 11.9125 15.1732 11.6196 14.8803C11.3267 14.5874 11.3267 14.1126 11.6196 13.8197L14.4392 11L11.6196 8.18032C11.3267 7.88743 11.3267 7.41256 11.6196 7.11966Z" fill="#7D7D7D"/>
</svg>
