<svg width="16" height="21" viewBox="0 0 16 21" fill="none" xmlns="http://www.w3.org/2000/svg">
<path d="M12.4225 6.74273C8.85264 4.57082 10.5267 1.50531 10.5985 1.37789C10.7028 1.19656 10.7024 0.973477 10.5977 0.792461C10.4929 0.611445 10.2997 0.5 10.0905 0.5C8.25291 0.5 6.81393 1.02211 5.81357 2.05187C4.10424 3.81145 4.18354 6.55 4.21736 7.71945C4.22111 7.84898 4.22436 7.96094 4.22436 8.04406C4.22436 8.91234 4.36365 9.71395 4.48658 10.4212C4.5658 10.8769 4.6342 11.2705 4.64635 11.58C4.65936 11.9112 4.59889 11.9871 4.59631 11.9902C4.58768 12.0004 4.5158 12.0387 4.32147 12.0387C4.09982 12.0387 3.93643 11.9663 3.79166 11.8039C3.22619 11.1699 3.18709 9.43855 3.29521 8.49664C3.31455 8.33055 3.26201 8.16414 3.1508 8.0393C3.03963 7.91445 2.88041 7.84305 2.71322 7.84305C1.19193 7.84305 0.0551758 10.3309 0.0551758 12.5552C0.0551758 13.6009 0.265488 14.6252 0.680293 15.5998C1.08131 16.5419 1.65314 17.3922 2.37998 18.127C3.89373 19.6572 5.88955 20.5 7.99986 20.5C10.1187 20.5 12.114 19.6691 13.6183 18.1605C15.1187 16.6559 15.9449 14.6651 15.9449 12.5552C15.9449 9.86289 13.8384 7.6041 12.4225 6.74273ZM7.99986 19.3281C4.32865 19.3281 1.22709 16.2265 1.22709 12.5552C1.22709 11.6623 1.44014 10.7251 1.81158 9.98387C1.89834 9.8107 1.98736 9.66215 2.07521 9.53699C2.08502 10.5037 2.23814 11.8214 2.91607 12.5828C3.28178 12.9934 3.76775 13.2105 4.3215 13.2105C4.83881 13.2105 5.23303 13.0537 5.49311 12.7445C5.97936 12.1664 5.8301 11.3077 5.64119 10.2205C5.52639 9.55992 5.39627 8.81121 5.39627 8.04402C5.39627 7.94391 5.39279 7.82418 5.38881 7.68547C5.35674 6.57773 5.28998 4.2727 6.65416 2.86844C7.26654 2.23801 8.12154 1.85434 9.20318 1.72305C9.08107 2.12852 8.9758 2.64324 8.97174 3.21957C8.96275 4.48941 9.44846 6.30508 11.8135 7.74391C12.9577 8.44004 14.7731 10.3618 14.7731 12.5552C14.773 16.2898 11.7346 19.3281 7.99986 19.3281Z" fill="#4F4F4F"/>
</svg>
