<svg width="20" height="20" viewBox="0 0 20 20" fill="none" xmlns="http://www.w3.org/2000/svg">
<path fill-rule="evenodd" clip-rule="evenodd" d="M2.42515 2.42498C2.96699 1.88233 4.07915 1.60511 5.8685 2.20156L14.3578 5.03131C14.3579 5.03136 14.3576 5.03126 14.3578 5.03131C15.7371 5.49275 16.7135 6.00871 17.3298 6.51802C17.9488 7.02954 18.1282 7.46483 18.1282 7.7838C18.1282 8.10253 17.949 8.53707 17.3304 9.0472C16.7143 9.55529 15.7384 10.0694 14.3589 10.5284L11.8385 11.3685C11.6145 11.4432 11.4388 11.6189 11.3642 11.8429L10.5242 14.3629C10.0652 15.7422 9.55045 16.7183 9.04173 17.3344C8.53098 17.9529 8.09545 18.1325 7.77567 18.1325C7.4559 18.1325 7.02037 17.9529 6.50962 17.3344C6.0009 16.7183 5.48628 15.7426 5.02731 14.3633L2.19774 5.87456C2.19783 5.87482 2.19766 5.8743 2.19774 5.87456C1.60612 4.08502 1.88243 2.96851 2.42515 2.42498ZM1.3637 1.36511C0.233997 2.4965 0.105568 4.32553 0.773603 6.34553L0.774162 6.34722L3.60404 14.8368C3.60408 14.837 3.604 14.8367 3.60404 14.8368C4.09505 16.3123 4.68301 17.4781 5.35298 18.2895C6.02098 19.0984 6.84045 19.6325 7.77567 19.6325C8.7109 19.6325 9.53037 19.0984 10.1984 18.2895C10.8683 17.4781 11.4562 16.3127 11.9472 14.8372L12.6686 12.673L14.8325 11.9517C14.8326 11.9516 14.8323 11.9517 14.8325 11.9517C16.3078 11.4608 17.4734 10.8735 18.2847 10.2045C19.0936 9.53741 19.6282 8.71881 19.6282 7.7838C19.6282 6.84901 19.0938 6.02993 18.2853 5.36176C17.4742 4.69144 16.309 4.10231 14.8336 3.60878L6.34284 0.778535C4.32219 0.104984 2.49436 0.232763 1.3637 1.36511Z" fill="#7D7D7D"/>
<path fill-rule="evenodd" clip-rule="evenodd" d="M7.77615 7.52899C7.48285 7.82147 7.48219 8.29635 7.77467 8.58965L11.3547 12.1796C11.6472 12.4729 12.122 12.4736 12.4153 12.1811C12.7086 11.8886 12.7093 11.4138 12.4168 11.1205L8.83681 7.53047C8.54433 7.23717 8.06945 7.2365 7.77615 7.52899Z" fill="#7D7D7D"/>
</svg>
